<svg width="2134" height="2133" viewBox="0 0 2134 2133" fill="none" xmlns="http://www.w3.org/2000/svg">
<g clip-path="url(#clip0_69_2146)">
<path fill-rule="evenodd" clip-rule="evenodd" d="M473.375 1254.56C506.458 1312.58 552.425 1363.03 608.492 1401.63C706.255 1468.93 826.719 1494.69 943.381 1473.23C1060.05 1451.78 1163.35 1384.86 1230.58 1287.22C1269.14 1231.2 1294.02 1167.7 1304.14 1101.72C1233.44 1176.22 1085.45 1244.96 907.164 1277.75C728.928 1310.53 566.115 1298.97 473.375 1254.56Z" fill="#159485"/>
<path d="M1437.97 1766.13C1488.58 1756.82 1522.01 1708.25 1512.65 1657.65C1503.28 1607.05 1454.65 1573.58 1404.04 1582.88C1353.43 1592.19 1319.99 1640.76 1329.36 1691.36C1338.73 1741.96 1387.35 1775.44 1437.97 1766.13Z" fill="#159485"/>
<path d="M1035.95 1357.63L1012.9 1386.89L1352.15 1654.17L1375.21 1624.91L1035.95 1357.63Z" fill="#159485"/>
<path d="M200.455 1318.04C251.067 1308.73 284.502 1260.17 275.134 1209.57C265.766 1158.96 217.142 1125.49 166.53 1134.8C115.917 1144.11 82.4822 1192.67 91.8504 1243.27C101.219 1293.88 149.843 1327.35 200.455 1318.04Z" fill="#DEFEFA"/>
<path d="M840.816 1123.83L200.909 1216.25L207.694 1252.9L840.816 1123.83Z" fill="#DEFEFA"/>
<path fill-rule="evenodd" clip-rule="evenodd" d="M1277.29 957.061C1244.2 899.047 1198.24 848.598 1142.17 809.999C1044.41 742.696 923.943 716.938 807.279 738.395C690.615 759.85 587.307 826.761 520.084 924.407C481.52 980.423 456.643 1043.92 446.517 1109.9C517.225 1035.41 665.209 966.664 843.497 933.876C1021.73 901.095 1184.55 912.655 1277.29 957.061Z" fill="#23F7DD"/>
<path d="M977.107 843.92L1012.25 856.406L1154.87 454.284L1119.73 441.798L977.107 843.92Z" fill="#23F7DD"/>
<path d="M1205.34 484.774C1251.8 462.686 1271.51 407.111 1249.36 360.643C1227.22 314.175 1171.59 294.41 1125.13 316.498C1078.67 338.586 1058.96 394.161 1081.11 440.629C1103.25 487.097 1158.88 506.861 1205.34 484.774Z" fill="#23F7DD"/>
</g>
<defs>
<clipPath id="clip0_69_2146">
<rect width="1537.14" height="1530.24" fill="white" transform="translate(867.731) rotate(34.5451)"/>
</clipPath>
</defs>
</svg>
